<?xml version="1.0" standalone="no"?>
<!DOCTYPE svg PUBLIC "-//W3C//DTD SVG 20010904//EN"
 "http://www.w3.org/TR/2001/REC-SVG-20010904/DTD/svg10.dtd">
<svg version="1.0" xmlns="http://www.w3.org/2000/svg"
 width="200.000000pt" height="200.000000pt" viewBox="0 0 200.000000 200.000000"
 preserveAspectRatio="xMidYMid meet">
<metadata>
Created by potrace 1.11, written by Peter Selinger 2001-2013
</metadata>
<g transform="translate(0.000000,200.000000) scale(0.100000,-0.100000)"
fill="#000000" stroke="none">
<path d="M0 1760 c0 -141 4 -240 9 -240 5 0 16 7 25 15 8 8 19 15 25 15 5 0
13 9 16 20 6 18 17 24 38 21 4 0 7 4 7 10 0 6 7 17 15 25 10 11 15 11 15 3 0
-6 9 0 21 15 11 14 25 23 31 20 7 -4 8 -2 4 4 -4 7 -3 12 3 12 5 0 22 14 38
30 15 17 42 38 58 46 27 13 99 71 161 130 13 12 24 20 26 18 2 -2 25 16 51 40
26 23 49 40 52 38 3 -3 5 0 5 6 0 9 -78 12 -300 12 l-300 0 0 -240z"/>
<path d="M1032 1825 c0 -16 2 -22 5 -12 2 9 2 23 0 30 -3 6 -5 -1 -5 -18z"/>
<path d="M1075 1811 c-13 -26 -13 -31 -1 -31 7 0 17 12 20 26 10 38 0 41 -19
5z"/>
<path d="M1240 1738 c12 -21 23 -38 25 -38 10 0 -10 41 -27 57 -19 17 -19 15
2 -19z"/>
<path d="M655 1630 c-3 -6 1 -7 9 -4 18 7 21 14 7 14 -6 0 -13 -4 -16 -10z"/>
<path d="M1585 1398 c-2 -7 -9 -42 -15 -78 -6 -36 -18 -78 -25 -95 l-13 -30
-2 30 c-1 46 -11 107 -20 130 -6 13 -8 -1 -6 -40 2 -33 0 -103 -4 -155 -4 -61
-8 -77 -9 -45 -2 73 -17 87 -24 24 -8 -68 -47 -199 -59 -199 -5 0 -6 -4 -3
-10 12 -20 -132 -229 -187 -270 -73 -55 -69 -54 -57 -26 7 14 16 23 20 20 9
-5 10 -1 15 74 2 37 -8 58 -18 33 -7 -19 -123 -91 -146 -91 -14 0 -31 -8 -39
-17 -36 -45 -73 -109 -73 -126 0 -19 5 -20 109 -14 108 6 109 6 113 -17 3 -13
0 -23 -6 -22 -6 0 -57 -3 -113 -8 l-103 -8 0 -43 c0 -39 -3 -44 -30 -54 -16
-5 -31 -8 -31 -5 -5 18 -7 28 -8 60 l-1 35 -57 -6 c-32 -3 -91 -11 -130 -17
-78 -12 -87 -20 -78 -70 5 -23 1 -29 -21 -34 l-27 -7 5 -88 c5 -80 4 -89 -12
-89 -21 0 -36 80 -17 92 9 6 9 8 0 8 -9 0 -13 16 -13 48 0 47 -1 48 -42 66
-24 9 -51 21 -61 27 -15 8 -17 4 -17 -41 0 -49 -10 -63 -27 -37 -4 6 -8 34 -8
61 0 33 -5 51 -14 54 -23 8 -5 -109 20 -127 12 -9 19 -25 18 -45 l-1 -31 -12
35 c-8 22 -15 30 -18 20 -3 -10 -12 -2 -26 25 -38 72 -23 26 38 -116 33 -77
60 -148 60 -159 0 -18 7 -20 60 -20 35 0 60 4 60 10 0 7 6 7 20 0 12 -7 89 -9
207 -8 l188 3 19 40 c11 22 22 47 26 55 4 8 17 15 28 14 11 0 18 5 16 11 -7
18 22 37 58 38 29 2 35 -3 60 -48 15 -27 30 -65 34 -82 l6 -33 270 0 c252 0
269 1 264 18 -3 9 -9 35 -15 57 -15 59 -35 83 -54 67 -8 -7 -18 -9 -21 -4 -3
5 -5 56 -4 113 0 109 -9 208 -23 246 -5 15 -1 50 12 100 11 43 18 90 15 105
-5 26 -4 27 25 21 31 -6 31 -5 24 26 -6 26 -2 37 16 57 30 32 39 30 29 -6 -11
-39 -6 -38 20 6 18 29 21 44 16 82 -4 26 -6 63 -5 82 5 75 2 100 -19 142 -11
24 -25 59 -31 78 -9 28 -10 29 -5 5 5 -29 5 -29 -10 -9 -15 21 -56 156 -56
184 0 13 1 13 10 0 5 -8 10 -10 10 -5 0 6 -5 17 -10 25 -9 13 -10 13 -10 0 0
-12 -2 -13 -9 -1 -14 21 -2 -78 15 -124 13 -36 13 -38 -1 -21 -24 31 -56 126
-50 147 4 11 4 19 0 19 -3 0 -7 -6 -10 -12z m165 -371 c0 -4 -5 -18 -11 -29
l-11 -21 -18 23 c-17 22 -17 26 -2 48 15 23 16 23 29 6 7 -10 13 -22 13 -27z
m-464 -486 c-9 -13 -66 -32 -66 -21 0 5 15 14 33 19 17 5 33 10 35 10 2 1 1
-3 -2 -8z m-88 -8 c-10 -2 -28 -2 -40 0 -13 2 -5 4 17 4 22 1 32 -1 23 -4z
m32 -60 c0 -15 -2 -16 -10 -3 -8 13 -10 12 -10 -2 0 -18 -20 -24 -33 -11 -8 7
23 32 41 33 6 0 12 -8 12 -17z m-12 -58 c-12 -14 -23 -25 -25 -25 -2 0 2 33 6
48 1 1 10 2 21 2 19 0 19 -1 -2 -25z m-252 -49 c7 -19 -14 -58 -28 -50 -7 4
-6 10 3 16 11 8 10 9 -3 4 -25 -8 -34 15 -13 31 24 17 34 17 41 -1z m110 -34
c-6 -19 -43 -32 -91 -32 -12 0 -28 -7 -35 -15 -7 -8 -28 -15 -47 -15 -28 0
-33 3 -25 13 9 10 1 16 -35 27 -38 11 -43 15 -27 21 49 19 131 2 94 -21 -8 -5
-7 -9 5 -13 11 -5 14 -3 9 6 -6 9 -4 9 8 -1 13 -10 18 -8 31 12 11 16 31 27
64 33 26 5 50 8 51 7 2 -1 1 -11 -2 -22z m62 16 c-4 -12 -49 -40 -55 -35 -1 2
0 13 4 25 4 15 13 22 30 22 15 0 23 -5 21 -12z m-418 -59 c-8 -13 -4 -18 22
-23 17 -3 42 -6 56 -6 l26 0 -26 -27 c-14 -16 -28 -37 -32 -47 -3 -10 -9 -16
-13 -13 -3 4 -15 -6 -27 -21 l-21 -26 -12 49 c-6 28 -12 40 -12 29 -1 -13 -9
-24 -23 -27 -12 -4 -23 -5 -24 -4 -1 1 -5 28 -8 60 -8 60 -3 67 35 47 11 -6
19 -7 18 -3 -4 24 3 33 25 31 20 -2 23 -6 16 -19z m146 -55 c-16 -14 -35 -23
-42 -20 -8 3 -18 -4 -24 -14 -13 -25 5 -27 31 -4 14 12 22 13 39 4 14 -7 19
-17 16 -27 -5 -12 -3 -13 6 -5 7 5 25 8 40 5 23 -4 25 -8 16 -23 -11 -17 -14
-16 -66 2 -30 10 -61 17 -69 14 -8 -3 -23 -26 -34 -51 -13 -29 -24 -43 -32
-39 -9 5 -9 4 0 -6 8 -9 9 -19 1 -36 -14 -30 -33 -31 -24 -1 4 12 8 27 9 32
23 100 91 195 140 195 21 -1 21 -2 -7 -26z m218 0 c5 -14 4 -15 -9 -4 -17 14
-19 20 -6 20 5 0 12 -7 15 -16z m-51 -34 c-13 -5 -23 -15 -23 -21 0 -8 4 -8
13 -2 19 15 49 24 42 13 -3 -6 -12 -10 -20 -10 -7 0 -15 -5 -17 -11 -2 -5 -11
-7 -21 -3 -17 6 -17 8 -1 25 9 11 24 19 33 18 10 0 8 -3 -6 -9z m-592 -58 c1
-16 2 -16 6 -1 6 25 57 9 61 -19 3 -18 -2 -22 -22 -22 -14 0 -26 3 -26 8 0 4
-12 8 -26 9 -30 1 -39 9 -48 40 -7 21 -5 22 23 12 17 -6 32 -18 32 -27z m249
18 c0 -13 -48 -35 -57 -27 -8 8 26 36 45 37 6 0 12 -5 12 -10z m50 -26 c0 -8
-5 -12 -10 -9 -6 4 -8 11 -5 16 9 14 15 11 15 -7z m-122 -16 c-2 -18 -10 -23
-33 -23 -23 0 -31 5 -33 23 -3 19 1 22 33 22 32 0 36 -3 33 -22z m82 -3 c14 9
22 -14 15 -43 -7 -27 -7 -27 -16 -4 -10 27 -19 28 -53 1 l-26 -20 0 25 c0 32
62 78 68 51 2 -8 7 -13 12 -10z m265 -25 c-8 -16 -20 -32 -26 -36 -8 -5 -9 -3
-4 6 6 10 4 12 -7 7 -12 -4 -15 0 -11 16 7 28 31 47 49 40 11 -4 11 -9 -1 -33z
m-407 -33 c3 -23 0 -28 -15 -25 -11 2 -19 14 -21 31 -3 23 0 28 15 25 11 -2
19 -14 21 -31z m367 -16 c3 -5 2 -12 -3 -15 -5 -3 -9 1 -9 9 0 17 3 19 12 6z"/>
<path d="M1360 1218 c-8 -75 -9 -121 -2 -138 7 -20 10 -10 11 50 0 41 4 103 7
138 3 34 4 62 1 62 -2 0 -10 -51 -17 -112z"/>
<path d="M493 1243 c-13 -32 -27 -78 -33 -103 -5 -25 -22 -93 -36 -151 -14
-58 -26 -119 -26 -135 -1 -39 35 -108 64 -121 23 -11 22 -11 -10 -19 -29 -6
-59 -40 -63 -71 -1 -5 -4 -13 -6 -20 -2 -6 5 -30 17 -53 19 -38 20 -87 1 -76
-4 3 -5 -9 -3 -26 4 -24 13 -34 46 -49 47 -20 80 -51 69 -63 -5 -4 -3 -6 2 -5
6 2 21 -3 35 -10 24 -14 25 -13 8 6 -10 11 -18 32 -18 46 0 21 -8 31 -39 46
-21 11 -41 27 -45 36 -3 9 -11 13 -17 9 -8 -4 -9 -3 -5 4 4 6 -1 28 -10 49 -8
21 -20 49 -25 63 l-9 25 18 -23 c18 -23 100 -82 115 -82 4 0 7 15 8 33 0 17 3
40 7 49 12 29 83 78 113 78 15 0 31 5 34 10 4 6 10 8 15 5 13 -8 0 -35 -17
-35 -8 0 -11 -5 -7 -12 4 -6 3 -8 -4 -4 -6 3 -25 -7 -43 -23 -26 -24 -33 -39
-37 -80 l-5 -51 34 -1 c135 -3 230 8 223 26 -7 16 15 99 23 91 8 -7 31 36 26
47 -2 4 -9 7 -14 7 -6 0 -7 -6 -3 -12 6 -10 5 -10 -7 -1 -8 6 -33 10 -56 9
-23 -1 -39 2 -36 7 3 5 -5 7 -18 5 -16 -2 -30 5 -43 20 -13 17 -22 20 -29 13
-17 -17 -31 -13 -17 4 7 8 11 15 9 16 -2 0 -14 2 -27 3 -12 2 -28 9 -35 16
-10 10 -9 11 2 5 17 -10 -24 51 -42 62 -31 19 -48 8 -25 -15 11 -11 1 -15 -29
-11 -3 0 -10 -6 -15 -15 -14 -24 -30 -19 -22 7 10 34 34 56 55 52 23 -5 24 4
4 41 -8 16 -15 37 -15 48 0 17 1 18 26 1 57 -37 152 -40 188 -6 14 13 23 27
21 31 -3 5 2 11 11 14 9 4 14 13 10 22 -3 8 -2 13 3 9 5 -3 11 -1 13 5 2 6 15
6 33 2 28 -8 31 -13 38 -67 9 -59 41 -120 58 -110 5 4 9 2 9 -3 0 -18 68 -42
117 -42 26 0 67 9 90 19 39 18 42 18 46 3 3 -9 5 -3 6 14 1 31 60 101 74 88 4
-4 7 2 7 14 0 11 5 24 10 27 17 11 0 26 -21 20 -11 -4 -30 0 -42 8 -17 11 -22
24 -22 60 0 25 -3 43 -6 41 -4 -2 -16 6 -26 19 -26 33 -64 57 -90 57 -31 0
-83 -33 -75 -47 5 -8 13 -9 22 -3 8 6 27 10 43 10 29 0 37 -22 14 -44 -13 -14
-29 -4 -39 24 -4 11 -9 8 -18 -11 -10 -21 -22 -28 -59 -34 -106 -17 -168 -9
-176 22 -3 12 -14 27 -25 33 -13 7 -20 21 -20 41 0 18 4 28 10 24 19 -11 10
35 -10 55 -24 24 -77 26 -108 4 -29 -20 -29 -36 1 -26 35 13 72 9 72 -8 0 -23
-45 -26 -46 -3 0 16 -2 15 -16 -4 -20 -29 -53 -31 -46 -3 6 24 0 25 -22 3 -14
-14 -18 -14 -26 -2 -7 11 -9 10 -9 -5 0 -15 -3 -16 -15 -6 -9 7 -15 35 -17 77
l-3 64 -22 -58z m147 -157 c12 -31 12 -31 22 -8 13 27 23 28 45 3 9 -11 22
-17 29 -14 17 6 25 -26 22 -85 -2 -34 -7 -48 -15 -45 -11 5 -17 -8 -14 -29 0
-3 -31 -6 -69 -5 -39 0 -68 2 -66 5 3 2 -8 15 -24 29 -35 29 -46 65 -42 133
l4 50 48 -1 c45 -2 50 -4 60 -33z m536 -83 c-11 -11 -26 10 -26 35 l1 27 15
-28 c9 -16 13 -31 10 -34z m-166 -14 c0 -29 19 -32 26 -5 5 22 8 24 20 11 8
-8 22 -11 32 -8 14 5 15 3 5 -8 -16 -17 -17 -39 -1 -39 6 0 22 9 34 21 l22 20
26 -26 c30 -30 31 -34 12 -79 -36 -87 -155 -108 -234 -41 -53 44 -66 157 -20
174 33 12 78 1 78 -20z"/>
<path d="M302 1255 c0 -11 -3 -29 -7 -40 -6 -17 -5 -17 9 2 13 17 14 28 7 40
-9 17 -10 16 -9 -2z"/>
<path d="M392 1045 c0 -16 2 -22 5 -12 2 9 2 23 0 30 -3 6 -5 -1 -5 -18z"/>
<path d="M1306 951 c1 -16 -2 -50 -7 -77 -13 -71 -4 -64 15 12 14 57 15 69 3
81 -11 11 -13 9 -11 -16z"/>
<path d="M380 761 c0 -25 6 -27 13 -6 4 8 2 17 -3 20 -6 4 -10 -3 -10 -14z"/>
<path d="M1230 694 c0 -8 5 -12 10 -9 6 4 8 11 5 16 -9 14 -15 11 -15 -7z"/>
<path d="M367 658 c-4 -12 -4 -24 -2 -27 3 -2 5 1 5 8 0 7 4 10 8 7 4 -2 9 4
9 15 2 26 -13 24 -20 -3z"/>
<path d="M345 573 c-3 -27 -10 -63 -15 -82 -6 -21 -6 -40 0 -50 8 -13 9 -12
10 7 0 12 4 22 9 22 10 0 37 89 32 109 -1 8 -9 20 -16 28 -12 11 -15 6 -20
-34z"/>
<path d="M191 484 c0 -11 3 -14 6 -6 3 7 2 16 -1 19 -3 4 -6 -2 -5 -13z"/>
<path d="M201 443 c-1 -6 -4 -20 -7 -30 -5 -17 -5 -17 6 0 6 10 9 23 6 30 -3
9 -5 9 -5 0z"/>
<path d="M226 337 c3 -10 9 -15 12 -12 3 3 0 11 -7 18 -10 9 -11 8 -5 -6z"/>
<path d="M194 205 c0 -28 -2 -61 -6 -75 -6 -18 -4 -17 6 5 12 26 15 27 19 10
2 -11 2 0 0 24 -7 69 -20 95 -19 36z"/>
<path d="M170 78 c0 -3 -7 -22 -15 -42 -8 -20 -13 -36 -10 -36 8 0 36 73 30
78 -3 3 -5 3 -5 0z"/>
<path d="M325 50 c10 -11 20 -20 23 -20 3 0 -3 9 -13 20 -10 11 -20 20 -23 20
-3 0 3 -9 13 -20z"/>
</g>
</svg>
